<svg width="18" height="15" viewBox="0 0 18 15" fill="none" xmlns="http://www.w3.org/2000/svg">
<path d="M17.1314 11.9322L17.7623 11.5817L17.2015 11.091C16.5005 10.6237 16.0098 10.2498 15.7294 9.96944L8.36891 3.38004C8.0885 2.86597 7.738 2.37527 7.3174 1.90794C6.61641 1.11347 5.8453 0.622774 5.0041 0.435841C4.7237 0.389107 4.44331 0.365741 4.1629 0.365741C3.1815 0.365741 2.36367 0.692874 1.7094 1.34714C1.33554 1.76774 1.05514 2.25844 0.868205 2.81924C0.541071 3.66044 0.354138 4.38481 0.307405 4.99234L0.237305 5.69334L1.1486 5.34284C1.38227 5.90364 1.75614 6.37097 2.2702 6.74484C1.9898 10.8574 3.41517 13.381 6.5463 14.3156C8.0885 14.783 9.88774 14.7362 11.944 14.1754C13.346 13.7548 15.0751 13.0071 17.1314 11.9322ZM3.532 3.94084C3.3918 3.94084 3.26329 3.88242 3.14645 3.76559C3.02962 3.64876 2.9712 3.50856 2.9712 3.34499C2.9712 3.18142 3.02962 3.04122 3.14645 2.92439C3.26329 2.80756 3.40349 2.74914 3.56705 2.74914C3.73062 2.74914 3.87082 2.80756 3.98765 2.92439C4.10449 3.04122 4.1629 3.18142 4.1629 3.34499C4.1629 3.50856 4.10449 3.64876 3.98765 3.76559C3.87082 3.88242 3.71894 3.94084 3.532 3.94084Z" fill="#7C7C7C"/>
</svg>
