<svg width="20" height="17" viewBox="0 0 20 17" fill="none" xmlns="http://www.w3.org/2000/svg">
<path d="M18.5522 5.41566C17.711 4.15385 16.6361 3.52295 15.3276 3.52295C14.019 3.52295 13.3648 3.82672 13.3648 4.43425C13.3648 4.90159 13.5984 5.13525 14.0658 5.13525C14.206 5.13525 14.4046 5.1002 14.6616 5.0301C14.9187 4.96 15.1406 4.92495 15.3276 4.92495C16.2155 4.92495 16.9632 5.41566 17.5708 6.39705C18.0381 7.23825 18.2718 8.17292 18.2718 9.20106C18.2718 10.6498 17.7694 11.9116 16.7646 12.9865C15.7599 14.0613 14.5331 14.5988 13.0844 14.5988H12.9442L13.2947 13.4772C13.3881 13.15 13.4349 12.8229 13.4349 12.4958C13.4349 11.234 13.2246 10.0656 12.804 8.99076C12.4768 8.14956 11.9628 7.44855 11.2618 6.88775C10.4206 6.18676 9.46254 5.78952 8.38767 5.69605C7.82687 5.64932 7.44132 5.59091 7.23102 5.5208C7.02072 5.4507 6.86884 5.32219 6.77537 5.13525C6.68191 4.80812 6.49497 4.50435 6.21457 4.22396C5.93417 3.94355 5.63041 3.77999 5.30327 3.73325C4.83594 3.63979 4.62564 3.33602 4.67237 2.82195C4.71911 2.30789 4.71911 1.86392 4.67237 1.49006C4.62564 1.20965 4.57891 0.952621 4.53217 0.718955L4.39197 0.508655L4.11157 0.859155C3.87791 1.13955 3.62087 1.37322 3.34047 1.56015C3.01334 1.79382 2.70957 1.91066 2.42917 1.91066C2.28897 1.91066 2.12541 1.88729 1.93847 1.84055C1.61134 1.74709 1.23747 1.53679 0.816872 1.20965L0.326172 0.789055C0.326172 1.06945 0.466372 1.74709 0.746772 2.82195C0.559839 3.28929 0.466372 3.66315 0.466372 3.94355C0.466372 4.36415 0.700039 4.87822 1.16737 5.48575V5.55585C1.49451 5.92972 1.68144 6.23349 1.72817 6.46715C1.86837 6.84102 1.89174 7.33172 1.79827 7.93925C1.70481 8.21966 1.72817 8.48837 1.86837 8.7454C2.00857 9.00244 2.24224 9.29452 2.56937 9.62165L3.90127 11.0237C4.04147 11.2573 4.11157 11.6546 4.11157 12.2154C4.11157 12.4023 4.07652 12.8112 4.00642 13.4421C3.93632 14.073 3.87791 14.4352 3.83117 14.5287L3.34047 14.8091C3.06007 14.996 2.91987 15.2063 2.91987 15.44C2.91987 15.6736 3.17691 15.7905 3.69097 15.7905C4.34524 15.7905 4.78921 15.6503 5.02287 15.3699C5.20981 15.1829 5.37337 14.7156 5.51357 13.9679C5.56031 14.7623 5.81734 15.3465 6.28467 15.7204C6.84547 16.2344 7.87361 16.4915 9.36907 16.4915C9.92987 16.4915 10.4439 16.4447 10.9113 16.3513L11.2618 16.2111C11.8226 16.0709 12.1731 16.0008 12.3133 16.0008H12.7339C14.6967 16.0942 16.344 15.475 17.6759 14.1431C19.0078 12.8112 19.6738 11.1639 19.6738 9.20106C19.6738 7.75232 19.2999 6.49052 18.5522 5.41566Z" fill="#7C7C7C"/>
</svg>
