<svg width="19" height="19" viewBox="0 0 19 19" fill="none" xmlns="http://www.w3.org/2000/svg">
<path d="M17.7719 4.73312L15.9493 3.96202C15.9025 3.68162 15.774 3.43627 15.5637 3.22597C15.3534 3.01567 15.1081 2.86379 14.8277 2.77032L14.7576 1.64872C14.7108 1.50852 14.6057 1.40337 14.4421 1.33327C14.2785 1.26317 14.15 1.29822 14.0566 1.43842L13.5659 1.92912L13.2855 0.94772C13.192 0.760786 13.0518 0.667318 12.8649 0.667318C12.6779 0.667318 12.5611 0.737419 12.5144 0.877619L9.99076 7.81752C9.10283 8.05119 8.27331 8.44842 7.50221 9.00922C6.73111 9.57002 6.11189 10.2243 5.64456 10.972C5.17723 11.7198 4.88514 12.4909 4.76831 13.2853C4.65148 14.0798 4.68653 14.8743 4.87346 15.6687C5.06039 16.4632 5.41089 17.0941 5.92496 17.5614H5.57446C4.77999 17.5614 4.03226 17.3511 3.33126 16.9305C2.63026 16.5099 2.11619 15.9258 1.78906 15.178C1.74233 15.0846 1.66054 15.0145 1.54371 14.9677C1.42688 14.921 1.32173 14.921 1.22826 14.9677C1.13479 15.0145 1.06469 15.0962 1.01796 15.2131C0.971227 15.3299 0.971227 15.4351 1.01796 15.5285C1.43856 16.4165 2.05778 17.1058 2.87561 17.5965C3.69344 18.0872 4.56969 18.3325 5.50436 18.3325H13.2855C13.3789 18.3325 13.4607 18.2975 13.5308 18.2274C13.6009 18.1573 13.636 18.0755 13.636 17.982C13.636 17.468 13.4841 17.0707 13.1803 16.7903C12.8765 16.5099 12.491 16.2996 12.0237 16.1594C12.3041 15.5986 12.4209 15.0378 12.3742 14.477L12.4443 14.4069L14.8978 18.1923C14.9912 18.2858 15.1081 18.3325 15.2483 18.3325H16.7204C16.8606 18.3325 16.9774 18.2624 17.0709 18.1222C17.1643 17.982 17.1643 17.8418 17.0709 17.7016L14.6875 13.9162V7.11652H15.1081C15.6689 7.11652 16.2063 6.95295 16.7204 6.62582C17.2344 6.29869 17.655 5.85472 17.9822 5.29392V5.22382C18.0289 5.13035 18.0289 5.03689 17.9822 4.94342C17.9354 4.84995 17.8653 4.77985 17.7719 4.73312Z" fill="#7C7C7C"/>
</svg>
