<svg width="542" height="422" viewBox="0 0 542 422" fill="none" xmlns="http://www.w3.org/2000/svg">
<g clip-path="url(#clip0_3206_18252)">
<path d="M425.052 302.083C425.052 338.022 424.815 373.96 425.219 409.898C425.33 419.144 422.185 421.577 412.204 421.02C405.704 420.659 399.189 420.367 392.689 420.367H359.338C352.893 420.367 346.448 420.659 340.003 421.02C330.371 421.563 327.573 418.949 327.601 410.274C327.851 344.389 327.879 278.504 327.67 212.62C327.489 159.442 291.41 113.994 239.865 101.371C168.472 83.8812 98.2194 138.296 97.774 211.911C97.3842 276.892 97.6765 341.887 97.6765 406.867C97.6765 416.219 92.8603 420.9 83.2279 420.909C59.2444 420.909 35.247 420.673 11.2635 421.048C3.37108 421.173 0.183485 419.13 0.225244 410.538C0.531475 339.565 -0.470737 268.564 0.754189 197.605C1.51977 153.005 19.0724 113.508 46.9534 79.1543C83.3115 34.3461 130.819 8.27862 188.265 1.66096C246.38 -5.02621 299.052 9.7523 344.959 46.0243C390.281 81.8375 416.881 128.828 424.119 186.246C426.555 205.585 424.815 225.132 425.01 244.596C425.205 263.768 425.052 282.925 425.052 302.097V302.083Z" fill="#662D91"/>
<path d="M252.017 227.37C264.92 241.718 271.337 258.206 267.927 277.615C262.624 307.895 233.782 328.457 204.092 323.34C172.981 317.974 152.116 288.848 157.558 258.401C163.043 227.76 192.594 207.309 223.315 212.939C225.667 213.37 227.992 213.899 230.344 214.385C238.696 216.846 246.171 220.753 252.017 227.356V227.37Z" fill="#A4A4A4"/>
<path d="M541.113 177.696C541.113 160.198 526.914 146.012 509.398 146.012C491.881 146.012 477.682 160.198 477.682 177.696V388.46C477.682 405.959 491.881 420.145 509.398 420.145C526.914 420.145 541.113 405.959 541.113 388.46V177.696Z" fill="#A4A4A4"/>
<path d="M541.113 93.1194C541.113 75.6246 526.914 61.4423 509.398 61.4423C491.881 61.4423 477.682 75.6246 477.682 93.1194C477.682 110.614 491.881 124.797 509.398 124.797C526.914 124.797 541.113 110.614 541.113 93.1194Z" fill="#A4A4A4"/>
</g>
<defs>
<clipPath id="clip0_3206_18252">
<rect width="541" height="421" fill="white" transform="translate(0.113281 0.10376)"/>
</clipPath>
</defs>
</svg>
