<svg width="19" height="11" viewBox="0 0 19 11" fill="none" xmlns="http://www.w3.org/2000/svg">
<path d="M15.6572 5.50007C16.218 5.31313 16.7087 5.00937 17.1293 4.58877C17.7368 3.98124 18.1107 3.1634 18.2509 2.13527C18.3443 1.57447 18.3677 1.0604 18.321 0.593068V0.312668L17.5499 0.242568C16.9423 0.242568 16.3815 0.312668 15.8675 0.452868C15.073 0.639801 14.4304 0.990301 13.9397 1.50437C13.449 2.01843 13.0868 2.71943 12.8532 3.60737C11.7316 2.71943 10.5866 2.08853 9.41826 1.71467C9.465 1.29407 9.465 0.920201 9.41826 0.593068V0.312668L8.64716 0.242568C8.03963 0.242568 7.47883 0.312668 6.96476 0.452868C6.1703 0.639801 5.5394 0.990301 5.07206 1.50437C4.93186 1.59783 4.81503 1.73804 4.72156 1.92497C3.69343 2.34557 2.7354 3.0232 1.84746 3.95787C1.38013 4.47193 1.00626 4.93927 0.725862 5.35987L0.655762 5.50007L0.725862 5.71037C1.1932 6.41137 1.80073 7.11237 2.54846 7.81337C4.04393 9.07517 5.63286 9.70607 7.31526 9.70607C8.3434 9.70607 9.3949 9.4724 10.4698 9.00507C11.2642 8.6312 12.0821 8.11714 12.9233 7.46287C13.1102 8.30407 13.449 8.9817 13.9397 9.49577C14.4304 10.0098 15.073 10.3603 15.8675 10.5473C16.3815 10.6875 16.9423 10.7576 17.5499 10.7576L18.321 10.6875V10.4071C18.3677 9.93973 18.3443 9.42567 18.2509 8.86487C18.1107 7.83674 17.7368 7.0189 17.1293 6.41137C16.7087 5.99077 16.218 5.687 15.6572 5.50007ZM4.30096 5.42997C4.11403 5.42997 3.95046 5.35987 3.81026 5.21967C3.67006 5.07947 3.59996 4.9159 3.59996 4.72897C3.59996 4.54203 3.67006 4.37847 3.81026 4.23827C3.95046 4.09807 4.11403 4.02797 4.30096 4.02797C4.4879 4.02797 4.65146 4.09807 4.79166 4.23827C4.93186 4.37847 5.00196 4.54203 5.00196 4.72897C5.00196 4.9159 4.93186 5.07947 4.79166 5.21967C4.65146 5.35987 4.4879 5.42997 4.30096 5.42997Z" fill="#7C7C7C"/>
</svg>
