<svg width="19" height="17" viewBox="0 0 19 17" fill="none" xmlns="http://www.w3.org/2000/svg">
<path d="M18.7184 5.0972C18.7184 6.06503 18.3797 6.88768 17.7022 7.56516C17.0247 8.24265 16.2021 8.58139 15.2342 8.58139H11.9678V9.0895C11.9678 9.47663 12.0404 9.6702 12.1856 9.6702H15.2342C15.4278 9.6702 15.573 9.73068 15.6698 9.85166C15.7665 9.97264 15.8149 10.1057 15.8149 10.2509C15.8149 10.3961 15.7665 10.5291 15.6698 10.6501C15.573 10.7711 15.4278 10.8316 15.2342 10.8316H12.1856C11.1693 10.8316 10.6612 10.0815 10.6612 8.58139L9.20949 8.5088C8.14487 8.5088 7.27383 8.53299 6.59634 8.58139C5.82208 8.58139 5.1204 8.83544 4.49131 9.34355C3.86222 9.85166 3.4267 10.4566 3.18474 11.1582C2.94278 11.8599 2.94278 12.5253 3.18474 13.1544C3.52348 14.0254 3.95901 14.6303 4.49131 14.9691C4.97523 15.211 5.62851 15.332 6.45117 15.332C7.27383 15.332 7.95131 15.0417 8.48361 14.461C8.82236 14.1706 8.99173 13.7956 8.99173 13.3359C8.99173 12.8761 8.82236 12.4769 8.48361 12.1382C8.29005 11.9446 8.06019 11.8962 7.79403 11.993C7.52788 12.0898 7.3948 12.2833 7.3948 12.5737C7.3948 12.7673 7.45529 12.9245 7.57627 13.0455C7.69725 13.1665 7.75774 13.2996 7.75774 13.4447C7.75774 13.5899 7.69725 13.723 7.57627 13.844C7.45529 13.9649 7.32222 14.0254 7.17704 14.0254C7.03187 14.0254 6.91089 13.977 6.81411 13.8803C6.42697 13.4931 6.23341 13.0455 6.23341 12.5374C6.23341 12.0293 6.41488 11.618 6.77781 11.3034C7.14075 10.9889 7.56418 10.8195 8.04809 10.7953C8.53201 10.7711 8.96753 10.9526 9.35466 11.3397C9.88697 11.872 10.1531 12.5253 10.1531 13.2996C10.1531 14.0738 9.86277 14.7513 9.28207 15.332C8.5562 16.1063 7.63676 16.4934 6.52376 16.4934H5.87047C4.85425 16.5418 3.91061 16.324 3.03957 15.8401C2.16852 15.3562 1.49104 14.7029 1.00712 13.8803C0.523208 13.0576 0.28125 12.1382 0.28125 11.1219C0.28125 9.76698 0.51111 8.43621 0.970829 7.12964C1.43055 5.82307 2.09593 4.63748 2.96698 3.57286L3.4025 2.99216C4.27355 1.97594 5.28977 1.27426 6.45117 0.887133C7.61257 0.5 8.77396 0.403217 9.93536 0.596783C11.0968 0.790349 12.1372 1.27426 13.0566 2.04853C13.3954 1.75818 13.7946 1.60091 14.2543 1.57671C14.714 1.55252 15.1133 1.70979 15.452 2.04853L18.5007 4.66167C18.6458 4.75845 18.7184 4.90363 18.7184 5.0972ZM15.0165 6.40377C15.3068 6.40377 15.5367 6.25859 15.7061 5.96824C15.8754 5.67789 15.8754 5.39964 15.7061 5.13349C15.5367 4.86734 15.3189 4.73426 15.0528 4.73426C14.7866 4.73426 14.5809 4.81894 14.4358 4.98831C14.2906 5.15769 14.218 5.35125 14.218 5.56901C14.218 5.78677 14.2906 5.98034 14.4358 6.14971C14.5809 6.31908 14.7745 6.40377 15.0165 6.40377Z" fill="#00A9BF"/>
</svg>
